<svg xmlns="http://www.w3.org/2000/svg" viewBox="0 0 900 660">
  <rect width="900" height="660" fill="#f5eadb"/>
  <circle cx="160" cy="120" r="120" fill="#89a847" opacity=".35"/>
  <circle cx="760" cy="540" r="150" fill="#e9634f" opacity=".18"/>
  <g transform="translate(118 118)">
    <rect x="0" y="0" width="664" height="424" rx="36" fill="#1d1713"/>
    <rect x="36" y="36" width="280" height="160" rx="20" fill="#fffefa"/>
    <rect x="348" y="36" width="280" height="160" rx="20" fill="#fffefa"/>
    <rect x="36" y="228" width="180" height="160" rx="20" fill="#fffefa"/>
    <rect x="248" y="228" width="380" height="160" rx="20" fill="#fffefa"/>
    <g transform="translate(68 66)" fill="#e9634f">
      <circle cx="35" cy="35" r="28"/><circle cx="105" cy="35" r="28"/><circle cx="175" cy="35" r="28"/>
      <circle cx="70" cy="93" r="28"/><circle cx="140" cy="93" r="28"/>
    </g>
    <g transform="translate(386 80)">
      <rect width="96" height="46" rx="23" fill="#fffefa" stroke="#d4c1aa" stroke-width="10"/>
      <path d="M0 22c33-24 65-25 96 0v10c-34 18-64 18-96 0z" fill="#b9283e"/>
      <rect x="112" y="0" width="96" height="46" rx="23" fill="#fffefa" stroke="#d4c1aa" stroke-width="10"/>
      <path d="M112 22c33-24 65-25 96 0v10c-34 18-64 18-96 0z" fill="#f1a34f"/>
    </g>
    <g transform="translate(75 260)">
      <circle cx="50" cy="50" r="48" fill="#12332b"/>
      <circle cx="50" cy="50" r="29" fill="#fffefa"/>
      <circle cx="50" cy="50" r="16" fill="#89a847"/>
    </g>
    <path d="M306 304h260" stroke="#c99a43" stroke-width="18" stroke-linecap="round"/>
    <path d="M306 342h210" stroke="#e9634f" stroke-width="18" stroke-linecap="round"/>
  </g>
</svg>
