<svg xmlns="http://www.w3.org/2000/svg" viewBox="0 0 1600 1000" role="img" aria-labelledby="title desc">
  <title id="title">Modern sushi table</title>
  <desc id="desc">A richly lit sushi table with nigiri, rolls, chopsticks, and Japanese dining details.</desc>
  <defs>
    <linearGradient id="bg" x1="0" x2="1" y1="0" y2="1">
      <stop offset="0" stop-color="#12332b"/>
      <stop offset=".48" stop-color="#26322b"/>
      <stop offset="1" stop-color="#1b120d"/>
    </linearGradient>
    <radialGradient id="light" cx=".72" cy=".35" r=".55">
      <stop offset="0" stop-color="#f7c86f" stop-opacity=".7"/>
      <stop offset=".5" stop-color="#e9634f" stop-opacity=".22"/>
      <stop offset="1" stop-color="#12332b" stop-opacity="0"/>
    </radialGradient>
    <filter id="shadow" x="-20%" y="-20%" width="140%" height="150%">
      <feDropShadow dx="0" dy="28" stdDeviation="28" flood-color="#000" flood-opacity=".38"/>
    </filter>
  </defs>
  <rect width="1600" height="1000" fill="url(#bg)"/>
  <rect width="1600" height="1000" fill="url(#light)"/>
  <path d="M0 700c310-80 617-91 920-33s530 28 680-82v415H0z" fill="#f5eadb" opacity=".12"/>
  <g opacity=".22" stroke="#fffaf2" stroke-width="2">
    <path d="M104 130h300M1220 102h250M1170 830h260M670 118h170"/>
  </g>
  <g filter="url(#shadow)" transform="translate(610 290) rotate(-8)">
    <ellipse cx="255" cy="265" rx="380" ry="170" fill="#1f1916"/>
    <ellipse cx="255" cy="238" rx="380" ry="170" fill="#fffaf2"/>
    <ellipse cx="255" cy="238" rx="320" ry="124" fill="#f2dfca"/>
    <g transform="translate(28 110)">
      <g transform="translate(0 30)">
        <rect x="0" y="0" width="122" height="64" rx="30" fill="#fffefa"/>
        <path d="M0 31c38-30 82-31 122 0v12c-42 23-82 22-122 0z" fill="#e9634f"/>
      </g>
      <g transform="translate(150 8)">
        <rect x="0" y="0" width="128" height="70" rx="33" fill="#fffefa"/>
        <path d="M0 33c41-33 88-34 128 0v14c-42 25-85 25-128 0z" fill="#b9283e"/>
      </g>
      <g transform="translate(310 36)">
        <rect x="0" y="0" width="118" height="64" rx="30" fill="#fffefa"/>
        <path d="M0 30c36-28 82-29 118 0v12c-40 24-80 23-118 0z" fill="#f1a34f"/>
      </g>
      <g transform="translate(80 128)">
        <circle cx="54" cy="54" r="54" fill="#12332b"/>
        <circle cx="54" cy="54" r="34" fill="#fffefa"/>
        <circle cx="54" cy="54" r="18" fill="#89a847"/>
      </g>
      <g transform="translate(228 126)">
        <circle cx="54" cy="54" r="54" fill="#12332b"/>
        <circle cx="54" cy="54" r="34" fill="#fffefa"/>
        <circle cx="54" cy="54" r="18" fill="#e9634f"/>
      </g>
      <g transform="translate(376 118)">
        <circle cx="54" cy="54" r="54" fill="#12332b"/>
        <circle cx="54" cy="54" r="34" fill="#fffefa"/>
        <circle cx="54" cy="54" r="18" fill="#c99a43"/>
      </g>
    </g>
  </g>
  <g transform="translate(1040 168) rotate(28)" stroke="#d9b46c" stroke-linecap="round" stroke-width="16">
    <path d="M0 0l420 650"/>
    <path d="M42-8l420 650"/>
  </g>
  <g transform="translate(1120 640)">
    <ellipse cx="120" cy="84" rx="132" ry="68" fill="#15100d" opacity=".5"/>
    <ellipse cx="120" cy="65" rx="132" ry="68" fill="#111"/>
    <ellipse cx="120" cy="53" rx="104" ry="46" fill="#2b1611"/>
    <ellipse cx="120" cy="52" rx="70" ry="28" fill="#3c1c12"/>
  </g>
</svg>
